<?xml version="1.0" encoding="UTF-8"?>
<svg width="182.65" height="182.65" version="1.1" viewBox="0 0 182.65 182.65" xml:space="preserve" xmlns="http://www.w3.org/2000/svg"><g transform="matrix(1.3333 0 0 -1.3333 5.3241 177.32)"><circle transform="scale(1,-1)" cx="64.502" cy="-64.502" r="66.995" fill="#fff" stroke-width="1.0515"/><g stroke-width=".1"><path d="m54.346 1.4367c0.902-0.14609 1.8094-0.27734 2.7235-0.3832v4.9449c-1.7235 0.21406-3.4219 0.50898-5.0961 0.86914l0.0656-0.13789 2.307-5.293" fill="#231f20"/><g fill="#e51635"><path d="m75.832 113.34c0.3402 2.195 1.8586 3.666 4.098 3.93 0 0 1.9836-0.06 2.0012-0.062 0.2063-0.018 0.4375-0.037 0.6652-0.055-3.5832 1.245-7.2781 2.132-11.047 2.619v-8.039c1.0304 1.307 2.55 1.906 4.2828 1.607"/><path d="m109.94 96.445 0.635-1.7961 3e-3 -0.0137c0.075-0.3789 0.112-0.75 0.112-1.1093 0-1.7871-0.91-3.2801-2.557-4.1141-0.013-7e-3 -0.028-0.0031-0.04-0.0098 6e-3 -0.0117 0.017-0.0168 0.024-0.0285 0.41-0.7429 0.618-1.5203 0.618-2.3105 0-0.8965-0.278-1.7461-0.788-2.5086h8.385c-1.654 4.3129-3.836 8.3836-6.494 12.139 0.018-0.046 0.039-0.0968 0.057-0.1421l0.045-0.1063"/><path d="m108.72 94.287c-2e-3 0.0051-0.528 1.4433-0.528 1.4433s-0.045 0.1075-0.058 0.1418c-0.526 1.2665-1.173 2.825-1.173 4.293 0 0.0828 2e-3 0.1649 7e-3 0.2469 0.047 0.9398 0.367 1.6388 0.662 2.1168-0.516 0.205-1.18 0.579-1.764 1.31-0.96 1.204-1.372 2.977-1.705 4.406 0 0-0.435 1.575-0.435 1.582-0.582 1.291-1.618 1.87-2.914 1.629-1.3561-0.257-2.1526-2.231-2.7436-3.695 0 0-0.134-0.306-0.2625-0.601-0.0652 0.217-0.0863 0.41-0.0863 0.535 0 0.098 9e-3 0.158 0.0098 0.164 0.0074 0.047 0.0109 0.092 0.0109 0.137 0 0.256-0.1102 0.492-0.3066 0.654-0.2727 0.205-0.5895 0.235-0.8747 0.102-0.0238-0.012-0.48-0.211-1.0804-0.057 0.2406 0.225 0.5195 0.485 0.5344 0.498 1.1496 1.018 2.7242 2.413 2.5293 3.832-0.1833 1.35-1.0403 2.183-2.4098 2.344 0 0-1.586-0.063-1.6063-0.065-1.4214-0.128-3.191-0.287-4.6168 0.279-0.8402 0.333-1.3941 0.855-1.7461 1.282-0.3543-0.431-0.907-0.951-1.7429-1.282-1.4274-0.568-3.2715-0.401-4.6258-0.278 0 0-1.593 0.064-1.593 0.065-1.3726-0.162-2.2324-0.996-2.4199-2.345l-0.0133-0.25c0-1.337 1.4797-2.64 2.5754-3.606 0 0 0.2715-0.254 0.5152-0.483-0.5707-0.126-1.0082 0.055-1.0125 0.058-0.2855 0.143-0.63 0.111-0.8773-0.084-0.2078-0.172-0.3184-0.408-0.3184-0.658v-0.019l0.0122-0.137 0.0089-0.142c0-0.121-0.0203-0.32-0.0867-0.545-0.1281 0.291-0.2679 0.609-0.2722 0.62-0.579 1.443-1.3719 3.42-2.7329 3.676-1.2984 0.24-2.3336-0.338-2.9097-1.616 0 0-0.4391-1.598-0.4489-1.639-0.175-0.751-0.3808-1.596-0.6718-2.406v-14.362c0.6523 0.2942 1.3019 0.6856 1.8711 1.0352 0 0 0.4507 0.2621 0.764 0.4433-0.0379-0.6597-0.3812-1.0683-0.4207-1.1132-0.1402-0.1375-0.2203-0.3426-0.2203-0.5555 0-0.0949 0.016-0.1926 0.0504-0.2852 0.0902-0.2941 0.3699-0.5207 0.7031-0.548-0.0258 0.0023 0.316-0.0789 0.666-0.391-0.3378-0.0313-0.7707-0.0707-0.796-0.0727-0.8141-0.0539-1.7856-0.125-2.6176-0.3691v-5.0215h9.4246c0.0691 0.5668 0.4656 1.1094 0.9289 1.5902 0.2746 0.2836 0.5715 0.5457 0.8375 0.7778l0.6125 0.5793c4e-4 7e-4 8e-4 0.0011 0.0012 0.0023l0.014 0.0133c0.5184 0.5761 0.5934 1.2695 0.1809 1.6844-0.1973 0.1464-0.4293 0.1894-0.6758 0.1289-0.2906-0.0645-0.5727-0.2536-0.7898-0.5114-0.0778-0.0902-0.1493-0.1879-0.2082-0.2933l-0.3395-0.7754c-0.3027-0.7563-0.6895-1.7196-1.282-2.2438-0.2004-0.1726-0.4235-0.2957-0.6742-0.3441-0.9614-0.1758-1.72 0.2433-2.1465 1.1906 0 0.0039-0.3094 1.1121-0.3094 1.1121-0.2254 0.9649-0.5008 2.1711-1.1418 2.966-0.4602 0.5743-0.9762 0.8094-1.2879 0.9149 0.1887 0.2773 0.4648 0.7793 0.507 1.5215 0 0.0488 0.0036 0.1015 0.0036 0.1601 0 0.9856-0.4434 2.0547-0.8063 2.9172l-0.3926 1.0848c-0.0394 0.1855-0.0601 0.3613-0.0601 0.5332 0 0.5699 0.2121 1.0504 0.6109 1.4078 0.1348 0.1176 0.2895 0.2223 0.4652 0.3109 0.9204 0.459 2.1774-0.3164 3.0996-0.8886l0.7184-0.4102c0.4203-0.1992 0.8496-0.2305 1.1813-0.0957 0.125 0.0512 0.2308 0.1262 0.3207 0.2191 0.0914 0.0914 0.1664 0.2004 0.2203 0.3289 0.0015 0.0106 0.0015 0.0196 0.0054 0.0313 0 0.0047 0.0114 0.0039 0.0114 0.0086 0.0039 0.043 0.0078 0.084 0.0078 0.1269 0 0.5567-0.5082 1.0969-1.1719 1.2247l-0.8234 0.0742c-1.0676 0.0703-2.5328 0.1672-3.036 1.08-0.1746 0.3375-0.2695 0.6755-0.2695 1.0055 0 0.518 0.2277 1.018 0.6715 1.459l0.9215 0.653c0.4031 0.26 0.8539 0.553 1.2711 0.889 0.4351 0.346 0.8355 0.737 1.1058 1.189 0.3672 0.603 0.4321 1.175 0.4321 1.521v0.021c0.3226-0.102 0.8796-0.197 1.5582 2e-3 0.1117 0.032 0.2179 0.093 0.3277 0.139 0.0012-2e-3 0.0031-4e-3 0.0047-7e-3 0.0308 0.013 0.059 0.033 0.0894 0.047 0.1766 0.08 0.3493 0.167 0.518 0.272 0.0078 5e-3 0.0152 0.01 0.023 0.015 0.4481 0.283 0.8672 0.624 1.2489 0.968 0.1211 0.109 0.2433 0.218 0.3558 0.322l0.8762 0.735c0.9145 0.551 2.041 0.441 2.6797-0.268 0.8629-0.967 0.4211-2.171 0.0648-3.14l-0.2918-0.994c-0.0683-0.75 0.3539-1.426 0.9438-1.514h0.1672c0.1597 0.023 0.3047 0.089 0.4328 0.184 0.375 0.262 0.5992 0.784 0.5476 1.345l-0.1875 0.895c-0.2593 1.021-0.614 2.406 0.1258 3.357 0.0766 0.099 0.1606 0.182 0.2485 0.252 0.6582 0.512 1.589 0.281 2.2558-0.117l0.8703-0.735c0.5157-0.474 1.1246-1.008 1.7832-1.386 0.0739-0.043 0.1473-0.079 0.2219-0.118 0.0699-0.035 0.1367-0.079 0.2078-0.11 0.0032 6e-3 0.0086 0.011 0.0121 0.017 0.1246-0.054 0.2465-0.122 0.3743-0.159 0.6785-0.199 1.239-0.104 1.5586-2e-3v-0.021c0-0.346 0.0664-0.918 0.432-1.521 0.014-0.024 0.0359-0.043 0.0508-0.066-0.0055-5e-3 -0.0082-0.013-0.0137-0.018 0.5434-0.847 1.5137-1.483 2.3113-1.998l0.9258-0.662c0.451-0.434 0.682-0.937 0.682-1.461 0-0.33-0.097-0.668-0.276-1.0061-0.0603-0.1113-0.1353-0.209-0.2224-0.2972-0.6297-0.6235-1.8648-0.7059-2.7977-0.7672l-0.825-0.0742c-0.3324-0.0645-0.6257-0.2352-0.8363-0.4594-0.2152-0.2223-0.348-0.4996-0.348-0.7828 0-0.0411 0.0039-0.0821 0.0117-0.125 0.0969-0.2598 0.2746-0.4317 0.5211-0.5371 0.3469-0.1473 0.8008-0.127 1.1992 0.0605 0.0031 0 0.7238 0.4102 0.7238 0.4102 0.9188 0.5722 2.1754 1.3476 3.0936 0.8886 0.719-0.3593 1.091-0.9668 1.091-1.7343 0-0.1719-0.018-0.3477-0.054-0.5332l-0.398-1.0848c-0.171-0.4137-0.356-0.875-0.504-1.3516-0.024-0.073-0.04-0.1465-0.061-0.2203-0.043-0.1519-0.085-0.3031-0.117-0.4562-0.025-0.1161-0.037-0.2301-0.054-0.3461-0.012-0.0864-0.033-0.1735-0.04-0.2586 5e-3 -0.0012 0.01-0.0028 0.014-0.0035-6e-3 -0.0883-0.027-0.1782-0.027-0.2653 0-0.0586 0-0.1113 6e-3 -0.1601 0.038-0.7422 0.312-1.2442 0.511-1.5215-0.317-0.1055-0.834-0.3406-1.2918-0.9149-0.0352-0.0441-0.0586-0.0996-0.0918-0.1457-1e-3 4e-4 -3e-3 4e-4 -5e-3 0.0016-0.0301-0.0422-0.0508-0.0934-0.0801-0.1367-0.0996-0.1547-0.1992-0.3082-0.2801-0.4805-0.0753-0.1555-0.1359-0.3187-0.1984-0.4828-0.0242-0.0664-0.0555-0.1285-0.0781-0.1953-0.1805-0.5203-0.3125-1.0586-0.4238-1.5422l-0.3114-1.1121c-0.1047-0.2344-0.2304-0.4363-0.3746-0.6047-0.4363-0.5-1.039-0.7012-1.7543-0.5703-1.0074 0.1933-1.5648 1.5871-1.9762 2.6035l-0.3355 0.7754c-0.2426 0.4355-0.6484 0.7578-1.041 0.8301-0.2387 0.0371-0.4555-0.0157-0.6153-0.1699-0.0023-0.0028-0.0027-0.0075-5e-3 -0.0098-0.0032-0.0027-0.0075-0.0027-0.0106-0.0059-0.3613-0.3769-0.2898-1.1218 0.2207-1.6843 0-0.0051 0.6102-0.5723 0.6102-0.5723 0.7191-0.632 1.6621-1.4727 1.7801-2.375h9.7281c0.339 0.2441 0.729 0.5254 0.731 0.5281 0.614 0.5938 0.938 1.2891 0.938 2.0117 0 0.4582-0.127 0.9192-0.379 1.377-0.668 1.2375-2.731 1.3742-4.277 1.4765 0 0-0.41 0.0383-0.753 0.0704 0.352 0.3121 0.697 0.3937 0.714 0.3964 0.281 0.0227 0.56 0.2442 0.664 0.5606 0.097 0.3086 0.016 0.6301-0.205 0.8496 0 0.0012-0.359 0.4016-0.394 1.0855 0.299-0.1734 0.773-0.4496 0.798-0.4644 1.293-0.7969 3.071-1.8867 4.297-1.2676 0.976 0.4942 1.489 1.3274 1.489 2.3867 0 0.2305-0.024 0.4719-0.073 0.7227"/><path d="m92.932 103.25c-2.9141 0.535-4.6988-1.735-4.7402-1.785-0.0368 0.05-1.8161 2.32-4.7317 1.785-1.5777-0.393-2.5695-1.566-2.6304-3.9414-0.0723-2.5469 1.4183-4.541 2.6304-6.1016 1.1981-1.5449 4.6477-4.6094 4.7317-4.6836v-0.0039 0.0039l0.0039-0.0039v0.0039c0.0886 0.0742 3.5398 3.1387 4.7363 4.6836 1.2125 1.5606 2.7031 3.5547 2.6324 6.1016-0.0605 2.3754-1.0547 3.5484-2.6324 3.9414"/></g><g fill="#0d4d84"><path d="m41.416 99.105c-7.2793 2.3202-13.742 3.0752-18.961 2.1292-0.5887-0.6734-1.1629-1.3632-1.723-2.0687l13.222-9.9621 7.4618 9.9016"/><path d="m35.152 88.301 4.8558-3.6586h16.949v7.7578c-4.9043 2.6172-9.611 4.6914-14.036 6.2094l-7.7687-10.309"/><path d="m43.862 99.857c4.1594-1.4547 8.5461-3.3805 13.096-5.7691v14.766c-2.0039 0.228-4.0164 0.355-6.0274 0.382l-7.0687-9.3789"/><path d="m56.912 119.66c-0.1578-0.019-0.3157-0.032-0.4731-0.055-10.788-1.516-20.66-6.064-28.678-13.065 7.0418 2.794 14.708 4.203 22.422 4.191l6.7293 8.929"/><path d="m42.364 100.36 6.684 8.8696c-8.5453-0.144-16.993-2.079-24.514-5.745-0.1668-0.171-0.3336-0.343-0.4985-0.517 5.2129 0.549 11.436-0.358 18.329-2.6076"/><path d="m52.038 110.7c1.6418-0.052 3.2835-0.164 4.9199-0.345v6.873l-4.9199-6.528"/></g><g fill="#598c76"><path d="m21.806 29.247 0.7934 2.7774-0.9192 0.3066-0.5508 1.2871-0.7961 0.3047-1.2863 3.4297 3.4563 1.6387 0.4574 0.2293 0.0016 7.4875-0.5512 0.2461-0.4903 2.2656 1.3059 0.709 1.7699 10.68 0.6219 0.3379 0.4699-0.3352-0.2754-5.5644 0.5321-0.2938 4.2215 28.709s-0.4766 0.3027-0.629 0.5c-0.0878 0.1101-0.1847 0.3836-0.2113 0.6805h-0.8609l-1.9988-13.866h-17.967c-0.52031-4.6164-0.46367-9.3293 0.2-14.051 1.4402-10.245 5.598-19.671 11.988-27.479h0.7191"/><path d="m37.21 54.769 0.2273 0.1426-0.2754 5.5645 0.4747 0.3144 0.5625-0.3176 1.7703-10.68 1.3652-0.7292-0.4902-2.2657-0.5512-0.2461-0.0023-7.2531 0.4398-0.2031 3.7484-1.743-1.2863-3.4297-0.7965-0.3047-0.5508-1.2871-0.9187-0.3066 0.7836-2.7774h3.4601l4.1625-11.25h2.5075l-0.9829-7.6122c2.0454-0.50703 4.1153-0.91679 6.2114-1.1879v61.58h-22.98l2.8262-16.154 0.2953 0.1465"/><path d="m28.296 40.722v4.1191c0 0.998-0.8093 1.8066-1.807 1.8066-0.9976 0-1.807-0.8086-1.807-1.8066v-4.8164l1.4699 0.6973h2.1441"/><path d="m33.44 46.027c0 0.9981-0.8094 1.8067-1.8071 1.8067-0.9976 0-1.807-0.8086-1.807-1.8067v-5.3046h3.6141v5.3046"/><path d="m38.584 40.377v4.343c0 0.998-0.809 1.8066-1.8062 1.8066-0.9985 0-1.8075-0.8086-1.8075-1.8066v-3.718l-0.0113-0.28h2.277l1.3511-0.6379-0.0031 0.2929"/><path d="m36.962 13.429c0 1.2871-1.891 3.3058-2.3281 3.3058s-2.3269-2.0187-2.3269-3.3058v-4.0371c1.5093-0.8879 3.059-1.7129 4.6449-2.4758l0.0101 6.5129"/><path d="m31.04 13.429c0 1.2871-1.891 3.3058-2.3278 3.3058-0.4371 0-2.3273-2.0187-2.3273-3.3058v-0.0852c1.5-1.1218 3.0512-2.1789 4.6492-3.1679l0.0059 3.2531"/></g><g fill="#0d4d84"><path d="m16.724 93.427c-0.459-2.6812-0.7082-5.6843-0.7336-8.7851h4.3746c-1.5293 3.289-2.609 6.5789-3.1352 9.5965-0.1699-0.27-0.341-0.5391-0.5058-0.8114"/><path d="m12.394 84.642h2.0879c0.0148 1.7969 0.1113 3.5574 0.2719 5.2625-0.8793-1.7184-1.6668-3.4746-2.3598-5.2625"/><path d="m29.82 85.304c0.2539 0.459 0.4058 0.5859 0.693 0.7793l1.0933 0.0027 1.4469 1.9199-13.248 9.9821c-0.459-0.6114-0.9-1.2321-1.3308-1.8578 0.3617-3.4911 1.6097-7.4981 3.5394-11.488h7.7047c-0.023 0.2234-0.0098 0.4621 0.1012 0.6621"/><path d="m32.696 84.642h4.8215l-3.2672 2.4617-1.5691-2.0828c0.0231-0.127 0.0281-0.2528 0.0148-0.3789"/><path d="m82.068 52.26-10.643 8.0192v-20.557c0.2664-0.1527 0.5339-0.3074 0.8003-0.4605l9.8426 12.998"/><path d="m83.004 17.447-5.3922-7.1571c6.5914 1.5942 12.722 4.3582 18.162 8.0653-4.1234-0.7774-8.4031-1.0864-12.77-0.9082"/><path d="m71.424 19.011v-9.8629c1.3285 0.16484 2.6375 0.39101 3.9351 0.64804l5.8375 7.7476c-3.2277 0.2274-6.4961 0.7231-9.7726 1.4672"/><path d="m92.982 66.675c-1.4395 1.3988-2.9379 2.7937-4.4789 4.1808h-17.078v-8.698l11.548-8.7016 10.009 13.219"/><path d="m107.5 52.458 7.688 10.204c-0.958 2.7672-2.15 5.5024-3.544 8.1945h-13.618l-3.0613-4.0433c4.8965-4.8485 9.1502-9.7192 12.535-14.355"/><path d="m119.89 68.899c-0.055 0.6531-0.1 1.3094-0.176 1.9566h-6.366c1.12-2.2238 2.098-4.4773 2.929-6.7523l3.613 4.7957"/><path d="m96.148 70.856h-5.4254c1.0785-0.9914 2.1387-1.9863 3.166-2.9836l2.2594 2.9836"/><path d="m84.11 18.916c5.0696-0.116 10.01 0.4301 14.695 1.643 2.0109 1.5781 3.9089 3.2918 5.6839 5.1257-3.7682 0.2653-8.1819 1.268-13.054 2.9532l-7.3246-9.7219"/><path d="m89.954 29.166c-5.3613 1.9664-11.219 4.7031-17.33 8.1383l-1.1996-1.5848v-15.158c3.646-0.8469 7.2804-1.3808 10.86-1.575l7.6695 10.18"/><path d="m120.04 66.604-3.169-4.2051c0.975-2.9418 1.698-5.9152 2.18-8.9012 0.69 3.5 1.06 7.1153 1.06 10.818 0 0.7684-0.038 1.5277-0.071 2.2879"/><path d="m108.42 51.182c2.748-3.9125 4.851-7.6355 6.176-11.01 1.408 2.9156 2.572 5.9703 3.46 9.1422-0.329 3.8914-1.099 7.7773-2.293 11.614l-7.343-9.7457"/><path d="m92.38 29.892c5.1023-1.7305 9.6652-2.6852 13.441-2.7754 1.292 1.434 2.509 2.9359 3.648 4.4984l-10.072 7.5895-7.0167-9.3125"/><path d="m100.3 40.402 10.038-7.5629c1.213 1.7621 2.322 3.6 3.33 5.5016-1.179 3.4906-3.297 7.4219-6.187 11.593l-7.1811-9.5313"/><path d="m73.538 38.511c6.1457-3.4449 12.018-6.1769 17.352-8.1035l7.3082 9.6996-14.932 11.25-9.7282-12.846"/><path d="m84.172 52.554 14.93-11.249 7.4694 9.9136c-3.343 4.6293-7.5897 9.5172-12.51 14.396l-9.8895-13.06"/></g><path d="m64.5 128c-35.175 0-63.69-28.516-63.69-63.69 0-15.795 5.7535-30.261 15.274-41.392l1.9645 5.3586c-7.7309 9.952-12.334 22.456-12.334 36.033 0 32.466 26.319 58.786 58.786 58.786 7.9149 0 15.661-1.623 22.553-4.459 0.0156 0.028 0.0449 0.048 0.0625 0.074 0.2676 0.254 0.6164 0.41 1.0035 0.41 0.5777 0 1.1039-0.342 1.3137-0.813 0.014-0.026 0.3507-0.639 1.1468-0.955 0.9954-0.395 2.509-0.259 3.7536-0.147 0 0 1.9718 0.059 1.9769 0.059 2.2414-0.265 3.7586-1.74 4.0899-3.938 3e-3 0 5e-3 3e-3 8e-3 3e-3 2.1997 0.409 4.0847-0.615 5.0547-2.766 0 0 0.548-1.922 0.548-1.92 0.287-1.235 0.643-2.77 1.328-3.629 0.537-0.673 1.191-0.806 1.251-0.817 0.55-0.102 0.989-0.496 1.125-0.958 0.059-0.166 0.089-0.338 0.089-0.508 0-0.213-0.064-0.406-0.149-0.585-0.03-0.029-0.05-0.069-0.084-0.094 8.561-10.211 13.715-23.376 13.715-37.743 0-30.128-22.664-54.964-51.873-58.386l3e-4 -4.9352c31.924 3.4461 56.777 30.481 56.777 63.321 0 35.175-28.514 63.69-63.689 63.69" fill="#231f20"/></g></g></svg>
