<?xml version="1.0" encoding="UTF-8"?>
<svg width="172" height="172" version="1.1" viewBox="0 0 172 172" xml:space="preserve" xmlns="http://www.w3.org/2000/svg"><path d="m85.998 1.3245c-46.899 0-84.918 38.019-84.918 84.918 0 21.059 7.6713 40.348 20.364 55.188l2.619-7.1443c-10.308-13.269-16.445-29.94-16.445-48.044 0-43.287 35.091-78.379 78.379-78.379 10.553 0 20.881 2.1639 30.069 5.9452 0.0208-0.03733 0.0605-0.06494 0.084-0.09961 0.35679-0.33866 0.82173-0.54687 1.3379-0.54687 0.77024 0 1.4722 0.45597 1.752 1.084 0.0187 0.03467 0.46782 0.85208 1.5293 1.2734 1.3272 0.52666 3.3443 0.34659 5.0038 0.19726 0 0 2.6298-0.08008 2.6366-0.08008 2.9884 0.35332 5.0113 2.3212 5.453 5.2519 4e-3 0 6e-3 -0.0039 0.01-0.0039 2.9328-0.54532 5.4468 0.81948 6.74 3.6874 0 0 0.73046 2.5631 0.73046 2.5604 0.38265 1.6467 0.85616 3.6925 1.7694 4.8378 0.71598 0.89731 1.588 1.0752 1.668 1.0898 0.73331 0.136 1.3187 0.66132 1.5 1.2773 0.0787 0.22132 0.11914 0.45106 0.11914 0.67771 0 0.28399-0.0859 0.54062-0.19922 0.77928-0.04 0.03867-0.066 0.09167-0.11132 0.125 11.415 13.615 18.287 31.166 18.287 50.323 0 40.17-30.217 73.283-69.162 77.846v6.5799c42.564-4.5947 75.701-40.641 75.701-84.426 0-46.898-38.019-84.918-84.918-84.918zm9.3982 10.977v10.719c1.3739-1.7427 3.4004-2.5411 5.7108-2.1425 0.45358-2.9266 2.4789-4.8881 5.4647-5.2401 0 0 2.6444 0.08132 2.6679 0.08398 0.27505 0.024 0.5831 0.04827 0.8867 0.07227-4.7775-1.66-9.7048-2.8428-14.73-3.4921zm-19.516 0.14258c-0.2104 0.02533-0.42098 0.04355-0.63084 0.07422-14.384 2.0212-27.546 8.0851-38.237 17.42 9.3889-3.7252 19.611-5.6038 29.895-5.5878l8.9725-11.906zm0.06055 3.2421-6.5603 8.7029c2.189 0.06933 4.3786 0.2196 6.5603 0.46093v-9.1639zm41.606 0.49413c-0.47239 0.57466-1.2097 1.2677-2.3241 1.709-1.9032 0.75731-4.3621 0.53313-6.1678 0.36913 0 0-2.1229-0.0846-2.1229-0.08594-1.8301 0.21599-2.9765 1.3283-3.2265 3.1269l-0.0176 0.33397c0 1.7827 1.9726 3.5185 3.4335 4.8065 0 0 0.3606 0.33919 0.68553 0.64451-0.76092 0.168-1.3439-0.07413-1.3496-0.07813-0.38066-0.19066-0.84017-0.14672-1.1699 0.11328-0.27707 0.22932-0.42382 1.2102-0.42382 0.87693v0.02539l0.0156 0.18164 0.0117 0.18944c0 0.16133-0.0267 0.42655-0.11523 0.72654-0.1708-0.38799-0.35754-0.81148-0.36327-0.82615-0.77198-1.924-1.8278-4.559-3.6425-4.9003-1.7312-0.31999-3.1126 0.45029-3.8808 2.1542 0 0-0.58458 2.1308-0.59764 2.1854-0.23332 1.0013-0.50847 2.1269-0.89646 3.2069v19.15c0.86971-0.39226 1.7372-0.91471 2.496-1.3809 0 0 0.59982-0.34823 1.0176-0.58982-0.05053 0.87958-0.50787 1.4245-0.56054 1.4844-0.18692 0.18332-0.29296 0.45636-0.29296 0.74021 0 0.12653 0.02054 0.25738 0.06641 0.38085 0.12027 0.39212 0.49322 0.69405 0.93748 0.73045-0.0344-0.0031 0.42199 0.10535 0.88865 0.52147-0.45039 0.04173-1.0288 0.09304-1.0625 0.0957-1.0855 0.07187-2.3808 0.16672-3.4901 0.49218v6.6951h12.566c0.0921-0.75571 0.62054-1.4781 1.2383-2.119 0.36613-0.37812 0.76251-0.72762 1.1172-1.0371l0.81639-0.77342 2e-3 -2e-3 0.0176-0.01953c0.69118-0.76811 0.79217-1.6909 0.24219-2.244-0.26307-0.1952-0.57172-0.25253-0.90037-0.17188-0.38746 0.086-0.7652 0.3379-1.0547 0.68162-0.10372 0.12027-0.1988 0.25008-0.27733 0.39061l-0.45117 1.0332c-0.40359 1.0084-0.9209 2.2932-1.7109 2.9921-0.26719 0.23012-0.56415 0.39444-0.89841 0.45897-1.2819 0.23439-2.2926-0.32481-2.8612-1.5879 0-0.0052-0.4121-1.4824-0.4121-1.4824-0.30052-1.2865-0.66875-2.8951-1.5234-3.955-0.61359-0.76571-1.3012-1.0781-1.7168-1.2188 0.25159-0.36972 0.61949-1.0397 0.67576-2.0292 0-0.06507 4e-3 -0.13476 4e-3 -0.21288 0-1.3141-0.59033-2.7405-1.0742-3.8905l-0.52343-1.4453c-0.05253-0.24732-0.08008-0.48173-0.08008-0.71092 0-0.75985 0.28271-1.4004 0.81443-1.877 0.17972-0.1568 0.38682-0.29787 0.62108-0.41601 1.2272-0.61198 2.9031 0.4226 4.1327 1.1855l0.957 0.54687c0.56039 0.26559 1.132 0.30668 1.5742 0.12695 0.16667-0.06827 0.30786-0.16715 0.42772-0.29101 0.12187-0.12187 0.22306-0.26811 0.29492-0.43944 2e-3 -0.01413 6.6e-4 -0.02542 6e-3 -0.04102 0-0.0063 0.0156-0.0055 0.0156-0.01172 5e-3 -0.05733 0.0117-0.11272 0.0117-0.16992 0-0.74225-0.67755-1.4624-1.5625-1.6328l-1.0996-0.09766c-1.4235-0.09373-3.3758-0.22433-4.0468-1.4414-0.23279-0.44999-0.35936-0.89982-0.35936-1.3398 0-0.69065 0.30279-1.3573 0.89451-1.9453l1.2285-0.87107c0.53744-0.34666 1.139-0.73753 1.6952-1.1855 0.58012-0.46132 1.1142-0.9813 1.4746-1.584 0.48959-0.80398 0.57615-1.568 0.57615-2.0292v-0.02734c0.43012 0.136 1.1733 0.26142 2.078-0.0039 0.14894-0.04267 0.28914-0.12226 0.43554-0.18359 2e-3 0.0027 6e-3 0.0038 8e-3 0.0078 0.0411-0.01733 0.0786-0.04383 0.11914-0.0625 0.23547-0.10667 0.46451-0.22132 0.68944-0.36132 0.0104-0.0067 0.0208-0.01482 0.0312-0.02148 0.59744-0.37732 1.1571-0.83038 1.666-1.2891 0.16146-0.14533 0.32265-0.29101 0.47265-0.42968l1.1699-0.98044c1.2193-0.73465 2.7206-0.5879 3.5722 0.35741 1.1505 1.2893 0.56098 2.8934 0.0859 4.1854l-0.38866 1.3262c-0.0911 0.99998 0.47126 1.9022 1.2578 2.0194h0.22265c0.21293-0.03067 0.40732-0.11943 0.57811-0.24608 0.49999-0.34932 0.79926-1.045 0.73046-1.793l-0.25-1.1934c-0.34573-1.3613-0.81842-3.2085 0.16796-4.4765 0.10213-0.132 0.21287-0.24259 0.33007-0.33593 0.87758-0.68265 2.1188-0.37441 3.0077 0.15625l1.1602 0.98044c0.68758 0.63198 1.5008 1.3437 2.3788 1.8477 0.0985 0.05733 0.19544 0.10425 0.29491 0.15625 0.0932 0.04667 0.18253 0.1071 0.27733 0.14844 4e-3 -8e-3 0.011-0.01544 0.0156-0.02344 0.16613 0.072 0.32959 0.1616 0.49999 0.21094 0.90464 0.26532 1.652 0.13991 2.078 0.0039v0.02734c0 0.46132 0.0887 1.2253 0.57615 2.0292 0.0187 0.032 0.0465 0.05722 0.0664 0.08789-7e-3 0.0067-0.0102 0.01677-0.0176 0.02344 0.72452 1.1293 2.0186 1.9774 3.0819 2.664l1.2344 0.88279c0.60132 0.57866 0.90818 1.2486 0.90818 1.9473 0 0.43999-0.12853 0.89098-0.36717 1.3418-0.0804 0.1484-0.18075 0.27887-0.29687 0.39647-0.83958 0.83131-2.4865 0.94168-3.7304 1.0234l-1.0996 0.09766c-0.44319 0.086-0.83441 0.31434-1.1152 0.61326-0.28694 0.29639-0.46288 0.66535-0.46288 1.043 0 0.0548 5e-3 0.11077 0.0156 0.16797 0.12919 0.34639 0.36468 0.5743 0.69334 0.71482 0.46252 0.1964 1.0684 0.16992 1.5996-0.08008 4e-3 0 0.96482-0.54687 0.96482-0.54687 1.2251-0.76291 2.9006-1.7975 4.1249-1.1855 0.95865 0.47906 1.4551 1.2892 1.4551 2.3124 0 0.22919-0.0243 0.46359-0.0723 0.71092l-0.53124 1.4473c-0.22799 0.55159-0.47453 1.1673-0.67186 1.8027-0.032 0.09733-0.0521 0.19456-0.0801 0.29296-0.0573 0.20252-0.11358 0.40328-0.15625 0.6074-0.0333 0.1548-0.0496 0.30821-0.0723 0.46288-0.016 0.1152-0.0434 0.23028-0.0527 0.34374 7e-3 0.0016 0.0122 0.0049 0.0176 0.0059-8e-3 0.11773-0.0352 0.23737-0.0352 0.35351 0 0.07813-1.9e-4 0.14782 8e-3 0.21288 0.0506 0.98958 0.4163 1.6596 0.68161 2.0292-0.42266 0.14067-1.1123 0.45301-1.7227 1.2188-0.0469 0.0588-0.0788 0.13385-0.12303 0.1953-2e-3 -5.34e-4 -3e-3 -3.53e-4 -6e-3 -2e-3 -0.0401 0.05627-0.0684 0.12391-0.10743 0.18164-0.1328 0.20626-0.26517 0.41088-0.37303 0.6406-0.1004 0.20732-0.18229 0.42377-0.26563 0.64256-0.0323 0.08853-0.0734 0.17265-0.1035 0.26171-0.24067 0.69371-0.41605 1.4118-0.56445 2.0565l-0.416 1.4824c-0.13959 0.31252-0.30773 0.5821-0.49999 0.80662-0.58172 0.66665-1.3842 0.93428-2.3378 0.75975-1.3432-0.25772-2.0861-2.1154-2.6347-3.4706l-0.44725-1.0352c-0.32346-0.58066-0.86519-1.0091-1.3887-1.1055-0.31825-0.04947-0.60722 0.02096-0.82028 0.22655-3e-3 0.0037-5e-3 0.0087-8e-3 0.01172-4e-3 0.0036-0.01 0.0035-0.0137 0.0078-0.48173 0.50252-0.38574 1.4961 0.29492 2.246 0 0.0068 0.81248 0.76365 0.81248 0.76365 0.95876 0.84265 2.2176 1.9629 2.3749 3.1659h12.97c0.45199-0.32546 0.97193-0.6995 0.9746-0.7031 0.81865-0.79171 1.25-1.7201 1.25-2.6835 0-0.61092-0.16986-1.2255-0.50586-1.8359-0.89064-1.65-3.6397-1.8324-5.7011-1.9688 0 0-0.54655-0.05095-1.0039-0.09375 0.46932-0.41612 0.92848-0.52373 0.95115-0.52733 0.37466-0.03027 0.74609-0.32617 0.88473-0.74803 0.12935-0.41146 0.0212-0.84013-0.27342-1.1328 0-0.0016-0.47872-0.53539-0.52538-1.4473 0.39866 0.23119 1.0311 0.5994 1.0645 0.61912 1.724 1.0625 4.0957 2.5148 5.7304 1.6895 1.3013-0.65891 1.9844-1.7692 1.9844-3.1815 0-0.30732-0.0323-0.62848-0.0977-0.96287-3e-3 -0.0068-0.70311-1.9258-0.70311-1.9258s-0.0608-0.14177-0.0781-0.1875c-0.70132-1.6887-1.5644-3.7672-1.5644-5.7245 0-0.1104 3e-3 -0.22074 0.01-0.33007 0.0627-1.2531 0.48947-2.1848 0.88279-2.8222-0.68798-0.27332-1.5729-0.77141-2.3515-1.7461-1.28-1.6053-1.8294-3.9696-2.2733-5.8749 0 0-0.58007-2.0999-0.58007-2.1093-0.77598-1.7213-2.1567-2.4931-3.8847-2.1718-1.8081 0.34266-2.8701 2.9737-3.6581 4.9257 0 0-0.18022 0.40939-0.35155 0.80272-0.0869-0.28932-0.11328-0.54621-0.11328-0.71287 0-0.13067 0.0107-0.21074 0.0117-0.21874 0.01-0.06267 0.0156-0.12359 0.0156-0.18358 0-0.34132-0.14828-0.65507-0.41014-0.87107-0.36359-0.27332-0.78573-0.31404-1.166-0.13672-0.0317 0.016-0.6389 0.28149-1.4394 0.07617 0.32079-0.29999 0.693-0.64671 0.71287-0.66404 1.5328-1.3573 3.6309-3.2173 3.371-5.1093-0.2444-1.8-1.3869-2.9102-3.2128-3.1249 0 0-2.1136 0.08327-2.1406 0.08594-1.8952 0.17067-4.2551 0.38356-6.156-0.37108-1.1203-0.44399-1.8588-1.1397-2.328-1.709zm-49.644 10.172-9.4236 12.504c5.5458 1.9396 11.394 4.5085 17.461 7.6932v-19.689c-2.6718-0.30399-5.3557-0.4718-8.0369-0.5078zm-2.5097 0.0059c-11.394 0.192-22.655 2.7721-32.685 7.66-0.22239 0.228-0.44419 0.45744-0.66404 0.68943 6.9503-0.73198 15.246 0.47709 24.437 3.4765l8.9119-11.826zm47.267 7.8631c-0.437-0.01462-0.8988 0.0163-1.3848 0.10547-2.1036 0.52399-3.4265 2.0886-3.5077 5.2558-0.0964 3.3958 1.8916 6.0538 3.5077 8.1346 1.5975 2.0598 6.1964 6.147 6.3084 6.2459l6e-3 0.0039v-0.0039c0.11813-0.09893 4.719-4.1861 6.3142-6.2459 1.6167-2.0807 3.6039-4.7388 3.5097-8.1346-0.0807-3.1671-1.4062-4.7318-3.5097-5.2558-3.8854-0.71331-6.2649 2.3141-6.3201 2.3808-0.0429-0.05833-1.8648-2.3839-4.9237-2.4862zm-77.201 2.2753c-1.938 0.03466-3.78 0.20809-5.5194 0.52343-0.78491 0.89785-1.5501 1.8171-2.2968 2.7577l17.629 13.283 9.949-13.201c-7.2791-2.3201-13.948-3.4672-19.762-3.3632zm21.767 4.0233-10.357 13.746 6.4725 4.8769h22.599v-10.344c-6.5389-3.4895-12.815-6.2551-18.715-8.2791zm-30.821 0.8281c-0.61198 0.81518-1.199 1.6423-1.7734 2.4765 0.48226 4.6547 2.1457 9.9978 4.7187 15.318h9.1365l-2.6659 18.488h-23.956c-0.69373 6.155-0.6173 12.437 0.26757 18.732 1.9203 13.661 7.4629 26.228 15.982 36.638h0.95897l1.0586-3.703-1.2266-0.40819-0.73436-1.7168-1.0605-0.40624-1.7148-4.5722 4.6073-2.1855 0.61132-0.30469 2e-3 -9.9842-0.73631-0.32812-0.65232-3.0214 1.7402-0.9453 2.3593-14.238 0.83006-0.45116 0.62693 0.44726-0.36718 7.4197 0.70896 0.39061 5.6288-38.278s-0.63467-0.40294-0.83787-0.666c-0.11707-0.1468-0.24773-0.51037-0.28319-0.90623h-0.0098c-0.03067-0.29786-0.01323-0.61613 0.13477-0.88279 0.33852-0.61198 0.54088-0.78118 0.92381-1.0391l1.457-0.0039 1.9297-2.5585-17.664-13.311zm120.05 1.7266c0.024 0.06133 0.0522 0.12905 0.0762 0.18944l0.0586 0.14258 0.84763 2.3944 4e-3 0.01758c0.1 0.50519 0.14844 1.0014 0.14844 1.4805 0 2.3827-1.2122 4.3723-3.4081 5.4843-0.0173 0.0093-0.0367 0.0047-0.0527 0.01367 8e-3 0.0156 0.0219 0.02151 0.0312 0.03711 0.54665 0.9905 0.8242 2.0283 0.8242 3.0819 0 1.1953-0.37078 2.327-1.0508 3.3437h11.18c-2.2052-5.7504-5.1141-11.178-8.658-16.186zm-123.48 3.2733c-0.22652 0.35999-0.45409 0.71894-0.67381 1.082-0.61198 3.5748-0.94463 7.5783-0.9785 11.713h5.8339c-2.039-4.3852-3.4799-8.7713-4.1815-12.795zm-3.3007 5.7792c-1.1724 2.2911-2.2224 4.6317-3.1464 7.0154h2.7831c0.01973-2.3958 0.14915-4.7421 0.36327-7.0154zm25.995 3.7343-2.0937 2.7753c0.0308 0.16933 0.03726 0.33772 0.01953 0.50585h6.4295l-4.3554-3.2811zm49.563 21.661v11.598l15.398 11.604 13.346-17.627c-1.9192-1.8651-3.9179-3.7247-5.9724-5.5741h-22.77zm25.729 0c1.438 1.3219 2.8528 2.6487 4.2226 3.9784l3.0116-3.9784zm9.7438 0-4.0819 5.3925c6.5285 6.4645 12.2 12.958 16.713 19.139l10.25-13.605c-1.2773-3.6895-2.8658-7.3361-4.7245-10.926h-18.156zm20.425 0c1.4933 2.965 2.7962 5.9705 3.9042 9.0037l4.8183-6.3943c-0.0733-0.87078-0.13303-1.7464-0.23437-2.6093h-8.4881zm-105.68 0.10742 3.7675 21.538 0.39452-0.1953 0.30273-0.19141-0.36718-7.4197 0.63279-0.41796 0.74998 0.42382 2.3593 14.238 1.8203 0.97262-0.65232 3.0214-0.73631 0.32811-2e-3 9.6697 0.58592 0.27148 4.9979 2.3241-1.7148 4.5722-1.0625 0.40624-0.73436 1.7168-1.2246 0.40819 1.0449 3.703h4.6132l5.5507 15h3.3417l-1.3105 10.15c2.7271 0.67603 5.4883 1.2225 8.283 1.584v-82.103h-30.64zm114.6 5.5624-4.2245 5.6073c1.3 3.9223 2.2636 7.8876 2.9062 11.869 0.91997-4.6666 1.4121-9.4881 1.4121-14.426 0-1.0245-0.0497-2.0371-0.0937-3.0507zm-34.638 1.3203-13.186 17.412 19.906 15 9.9588-13.219c-4.4572-6.1722-10.12-12.688-16.68-19.193zm28.937 6.2478-9.7908 12.994c3.6639 5.2166 6.4675 10.182 8.2342 14.682 1.8772-3.8874 3.4292-7.962 4.6132-12.191-0.43864-5.1884-1.4646-10.369-3.0565-15.484zm-59.118 0.86521v27.407c0.35519 0.2036 0.71314 0.40914 1.0684 0.61327l13.123-17.33-14.191-10.691zm15.789 11.895-12.971 17.129c8.1941 4.5931 16.025 8.2357 23.136 10.805l9.7439-12.932-19.91-15.002zm32.284 1.8984-9.576 12.709 13.385 10.084c1.6173-2.3494 3.0954-4.8004 4.4394-7.3357-1.572-4.654-4.3946-9.8959-8.2478-15.457zm-101.13 2.8007c-1.3301 0-2.4081 1.0794-2.4081 2.4101v7.0721h4.8183v-7.0721c0-1.3308-1.0799-2.4101-2.4101-2.4101zm-6.8592 1.582c-1.3301 0-2.4081 1.0775-2.4081 2.4081v6.4217l1.959-0.92967h2.8593v-5.4921c0-1.3307-1.0799-2.4081-2.4101-2.4081zm13.719 0.16015c-1.3313 0-2.4081 1.0775-2.4081 2.4081v4.9589l-0.01563 0.37304h3.0351l1.8027 0.84959-0.0059-0.39062v-5.7908c0-1.3307-1.0786-2.4081-2.4081-2.4081zm83.488 9.7634-9.3553 12.416c6.8029 2.3072 12.887 3.5808 17.922 3.7011 1.7227-1.912 3.3445-3.9146 4.8632-5.9978l-13.43-10.119zm-35.694 2.5331-1.5996 2.1132v20.21c4.8612 1.1292 9.7073 1.8407 14.48 2.0996l10.227-13.572c-7.1482-2.6218-14.959-6.2711-23.106-10.852zm25.079 11.555-9.7654 12.963c6.7593 0.15465 13.347-0.5742 19.594-2.1914 2.6811-2.104 5.2114-4.3887 7.5779-6.8338-5.0242-0.35373-10.91-1.6906-17.406-3.9374zm-26.679 12.836v13.15c1.7713-0.21977 3.5178-0.52056 5.2479-0.86326l7.783-10.33c-4.3035-0.30319-8.6624-0.96487-13.031-1.957zm32.464 0.87498c-5.4978 1.0365-11.204 1.4485-17.027 1.2109l-7.1892 9.5428c8.7883-2.1256 16.962-5.811 24.216-10.754zm-89.41 2.1601c-0.58279 0-3.1034 2.692-3.1034 4.4081v0.11328c2 1.4957 4.0685 2.9058 6.199 4.2245l0.0078-4.3378c0-1.716-2.521-4.4081-3.1034-4.4081zm7.8943 0c-0.58278 0-3.1034 2.692-3.1034 4.4081v5.3827c2.0124 1.1839 4.0787 2.2835 6.1932 3.3007l0.01367-8.6834c0-1.716-2.5206-4.4081-3.1034-4.4081zm23.118 13.156 0.08789 0.18358 3.0741 7.0564c1.2027 0.1948 2.4139 0.37058 3.6327 0.51171v-6.5936c-2.2979-0.28541-4.5626-0.67798-6.7947-1.1582z" fill="#fff" stroke-width=".99998"/></svg>
